<?xml version="1.0" encoding="utf-8"?>
<svg viewBox="0 0 142 36" fill="none" xmlns="http://www.w3.org/2000/svg" xmlns:bx="https://boxy-svg.com">
  <path d="M 65.721 19.944 C 65.721 15.436 63.621 12.664 59.645 12.664 C 55.837 12.664 53.513 15.94 53.513 20.532 C 53.513 25.208 55.921 28.092 60.037 28.092 C 62.081 28.092 63.733 27.392 65.189 26.244 L 64.069 24.704 C 62.781 25.6 61.689 25.992 60.233 25.992 C 58.105 25.992 56.509 24.676 56.257 21.26 L 65.665 21.26 C 65.693 20.924 65.721 20.448 65.721 19.944 L 65.721 19.944 Z M 63.173 19.356 L 56.257 19.356 C 56.453 16.08 57.741 14.708 59.701 14.708 C 62.025 14.708 63.173 16.304 63.173 19.188 L 63.173 19.356 Z M 72.636 28.092 C 73.392 28.092 74.12 27.896 74.68 27.588 L 74.008 25.796 C 73.728 25.908 73.42 25.964 73.056 25.964 C 72.384 25.964 72.132 25.572 72.132 24.788 L 72.132 6.756 L 69.556 7.064 L 69.556 24.844 C 69.556 26.944 70.76 28.092 72.636 28.092 L 72.636 28.092 Z M 79.214 5.916 C 78.15 5.916 77.422 6.672 77.422 7.68 C 77.422 8.66 78.15 9.416 79.214 9.416 C 80.306 9.416 81.034 8.66 81.034 7.68 C 81.034 6.672 80.306 5.916 79.214 5.916 Z M 80.53 13 L 77.954 13 L 77.954 27.756 L 80.53 27.756 L 80.53 13 Z M 96.613 13 L 93.897 13 L 90.061 25.46 L 86.197 13 L 83.397 13 L 88.493 27.756 L 91.601 27.756 L 96.613 13 Z M 110.592 19.944 C 110.592 15.436 108.492 12.664 104.516 12.664 C 100.708 12.664 98.384 15.94 98.384 20.532 C 98.384 25.208 100.792 28.092 104.908 28.092 C 106.952 28.092 108.604 27.392 110.06 26.244 L 108.94 24.704 C 107.652 25.6 106.56 25.992 105.104 25.992 C 102.976 25.992 101.38 24.676 101.128 21.26 L 110.536 21.26 C 110.564 20.924 110.592 20.448 110.592 19.944 L 110.592 19.944 Z M 108.044 19.356 L 101.128 19.356 C 101.324 16.08 102.612 14.708 104.572 14.708 C 106.896 14.708 108.044 16.304 108.044 19.188 L 108.044 19.356 Z M 121.007 12.664 C 119.215 12.664 117.843 13.784 117.059 15.996 L 116.807 13 L 114.595 13 L 114.595 27.756 L 117.171 27.756 L 117.171 19.328 C 117.787 16.5 118.851 15.184 120.699 15.184 C 121.231 15.184 121.539 15.24 121.987 15.352 L 122.463 12.832 C 122.015 12.72 121.483 12.664 121.007 12.664 L 121.007 12.664 Z M 136.234 13 L 133.574 13 L 129.71 25.88 L 125.762 13 L 123.018 13 L 127.974 27.756 L 128.842 27.756 C 128.002 30.052 127.162 31.2 124.166 31.704 L 124.446 33.72 C 128.534 33.272 130.27 30.976 131.306 27.84 L 136.234 13 Z" fill="#263238"/>
  <rect x="12.931" y="10.491" width="31.291" height="21.654" style="fill: rgb(216, 216, 216); stroke: rgb(88, 80, 232);"/>
  <path d="M 29.035 0.427 L 47.456 10.308 L 10.614 10.308 L 29.035 0.427 Z" style="fill: rgb(216, 216, 216); stroke: rgb(88, 80, 232);" bx:shape="triangle 10.614 0.427 36.842 9.881 0.5 0 1@14f2fbf3"/>
  <rect x="24.764" y="20.861" width="7.015" height="10.308" style="paint-order: stroke; fill: rgb(88, 80, 232); stroke: rgb(88, 80, 232);"/>
  <ellipse style="fill: rgba(218, 175, 45, 0.74); stroke: rgb(0, 0, 0);" cx="30.773" cy="26.29" rx="0.397" ry="0.488"/>
  <text style="white-space: pre; fill: rgb(51, 51, 51); font-family: Arial, sans-serif; font-size: 3.4px;" x="43.491" y="16.713"> </text>
  <text style="fill: rgb(38, 50, 56); font-family: Arial, sans-serif; font-size: 3.4px; white-space: pre;" transform="matrix(9.247806, 0, -0.131612, 10.820809, -383.202667, -182.810349)" x="45.137" y="19.641">D</text>
</svg>